<svg preserveAspectRatio="none" width="100%" height="100%" overflow="visible" style="display: block;" viewBox="0 0 548.546 521.985" fill="none" xmlns="http://www.w3.org/2000/svg">
<g id="bk">
<path id="Vector" fill-rule="evenodd" clip-rule="evenodd" d="M267.182 0.506328C335.259 -0.186965 385.476 56.2309 434.521 103.449C484.983 152.031 545.061 200.799 547.92 270.788C550.847 342.422 502.29 404.671 448.778 452.383C398.559 497.158 334.418 518.636 267.182 521.096C196.899 523.667 122.988 514.399 71.7953 466.175C19.4176 416.834 -4.79902 342.472 1.46911 270.788C7.29386 204.174 56.339 154.507 103.217 106.823C150.69 58.5339 199.469 1.19591 267.182 0.506328Z" stroke="var(--stroke-0, #B4955C)"/>
<path id="Vector_2" fill-rule="evenodd" clip-rule="evenodd" d="M267.678 18.6386C330.992 17.9935 377.695 70.4841 423.308 114.415C470.238 159.616 526.113 204.989 528.772 270.106C531.494 336.754 486.335 394.67 436.567 439.061C389.862 480.719 330.21 500.701 267.678 502.99C202.314 505.382 133.574 496.76 85.9636 451.892C37.251 405.986 14.7289 336.801 20.5584 270.106C25.9756 208.129 71.5888 161.919 115.187 117.554C159.338 72.6269 204.704 19.2801 267.678 18.6386Z" stroke="var(--stroke-0, #B4955C)"/>
<path id="Vector_3" fill-rule="evenodd" clip-rule="evenodd" d="M268.252 39.9878C326.06 39.3996 368.702 87.2663 410.348 127.327C453.198 168.546 504.214 209.923 506.642 269.303C509.127 330.08 467.895 382.894 422.454 423.374C379.811 461.363 325.346 479.585 268.252 481.672C208.571 483.854 145.809 475.991 102.338 435.075C57.8616 393.213 37.298 330.122 42.6206 269.303C47.5667 212.786 89.2135 170.647 129.02 130.19C169.332 89.2202 210.753 40.5729 268.252 39.9878Z" stroke="var(--stroke-0, #B4955C)"/>
<path id="Vector_4" fill-rule="evenodd" clip-rule="evenodd" d="M268.928 65.2907C320.247 64.7698 358.103 107.156 395.075 142.631C433.115 179.13 478.404 215.77 480.56 268.352C482.766 322.17 446.162 368.937 405.822 404.783C367.965 438.423 319.613 454.558 268.928 456.406C215.946 458.338 160.228 451.375 121.637 415.145C82.1527 378.075 63.8972 322.208 68.6224 268.352C73.0133 218.305 109.986 180.991 145.324 145.166C181.111 108.886 217.883 65.8088 268.928 65.2907Z" stroke="var(--stroke-0, #B4955C)"/>
</g>
</svg>
